<svg width="200" height="80" viewBox="0 0 200 80" xmlns="http://www.w3.org/2000/svg">
  <!-- Handwritten "Linko" text -->
  <g>
    <!-- L -->
    <path d="M8 15 L8 55 L25 55" stroke="#666666" stroke-width="3" fill="none" stroke-linecap="round" stroke-linejoin="round"/>
    
    <!-- i with decorative swirl -->
    <circle cx="33" cy="18" r="2" fill="#666666"/>
    <path d="M33 25 L33 55" stroke="#666666" stroke-width="3" stroke-linecap="round"/>
    <!-- Decorative swirl above i -->
    <path d="M28 12 Q32 8 36 12 Q40 16 44 12" stroke="#A8D8A8" stroke-width="2.5" fill="none" stroke-linecap="round"/>
    
    <!-- n -->
    <path d="M52 55 L52 35 Q52 25 62 25 Q72 25 72 35 L72 55" stroke="#666666" stroke-width="3" fill="none" stroke-linecap="round" stroke-linejoin="round"/>
    
    <!-- k -->
    <path d="M85 15 L85 55 M85 40 L100 25 M85 40 L100 55" stroke="#666666" stroke-width="3" stroke-linecap="round" stroke-linejoin="round"/>
    
    <!-- o (earth globe) -->
    <g transform="translate(115, 25)">
      <!-- Earth base circle -->
      <ellipse cx="25" cy="25" rx="22" ry="20" fill="#87CEEB" stroke="#666666" stroke-width="3"/>
      
      <!-- Green landmasses -->
      <!-- Left continent -->
      <path d="M10 20 Q15 15 20 20 Q22 25 18 30 Q13 32 10 28 Q8 23 10 20" fill="#A8D8A8"/>
      
      <!-- Right continent -->
      <path d="M30 18 Q38 15 42 20 Q44 25 40 28 Q38 32 32 30 Q28 25 30 18" fill="#A8D8A8"/>
      
      <!-- Bottom landmass -->
      <path d="M18 32 Q22 30 28 32 Q32 38 28 42 Q22 44 18 42 Q15 38 18 32" fill="#A8D8A8"/>
      
      <!-- Cute face -->
      <!-- Eyes -->
      <circle cx="20" cy="22" r="1.2" fill="#333333"/>
      <circle cx="30" cy="22" r="1.2" fill="#333333"/>
      
      <!-- Heart smile -->
      <text x="25" y="32" text-anchor="middle" font-size="6" fill="#333333">♡</text>
    </g>
  </g>
</svg>
